<mxfile host="app.diagrams.net" agent="Mozilla/5.0 (Windows NT 10.0; Win64; x64; rv:141.0) Gecko/20100101 Firefox/141.0" version="28.0.7">
  <diagram name="Page-1" id="wOTIBNbOZeJsL-OfB9G-">
    <mxGraphModel dx="1055" dy="700" grid="1" gridSize="11" guides="1" tooltips="1" connect="1" arrows="1" fold="1" page="1" pageScale="1" pageWidth="850" pageHeight="1100" math="0" shadow="0">
      <root>
        <mxCell id="0" />
        <mxCell id="1" parent="0" />
        <mxCell id="ZhMHDOxgKuTmW_Kodd7u-28" value="" style="edgeStyle=orthogonalEdgeStyle;rounded=0;orthogonalLoop=1;jettySize=auto;html=1;" edge="1" parent="1" source="ZhMHDOxgKuTmW_Kodd7u-3" target="ZhMHDOxgKuTmW_Kodd7u-6">
          <mxGeometry relative="1" as="geometry">
            <Array as="points">
              <mxPoint x="149" y="473" />
              <mxPoint x="149" y="473" />
            </Array>
          </mxGeometry>
        </mxCell>
        <mxCell id="ZhMHDOxgKuTmW_Kodd7u-3" value="&lt;h3&gt;Browse restaraunts&lt;/h3&gt;" style="ellipse;whiteSpace=wrap;html=1;aspect=fixed;fillColor=#e1d5e7;strokeColor=#9673a6;" vertex="1" parent="1">
          <mxGeometry x="88" y="275" width="121" height="121" as="geometry" />
        </mxCell>
        <mxCell id="ZhMHDOxgKuTmW_Kodd7u-5" value="&lt;h3&gt;Place orders&lt;/h3&gt;" style="ellipse;whiteSpace=wrap;html=1;aspect=fixed;fillColor=#e1d5e7;strokeColor=#9673a6;" vertex="1" parent="1">
          <mxGeometry x="341" y="500.13" width="121" height="121" as="geometry" />
        </mxCell>
        <mxCell id="ZhMHDOxgKuTmW_Kodd7u-6" value="&lt;h3&gt;View Menu&lt;/h3&gt;" style="ellipse;whiteSpace=wrap;html=1;aspect=fixed;fillColor=#e1d5e7;strokeColor=#9673a6;" vertex="1" parent="1">
          <mxGeometry x="88" y="495" width="121" height="121" as="geometry" />
        </mxCell>
        <mxCell id="ZhMHDOxgKuTmW_Kodd7u-9" value="&lt;h3&gt;Order tracking&lt;/h3&gt;" style="ellipse;whiteSpace=wrap;html=1;aspect=fixed;fillColor=#e1d5e7;strokeColor=#9673a6;" vertex="1" parent="1">
          <mxGeometry x="581.5" y="273.5" width="122.5" height="122.5" as="geometry" />
        </mxCell>
        <mxCell id="ZhMHDOxgKuTmW_Kodd7u-10" value="&lt;h3&gt;Deliver&lt;/h3&gt;" style="ellipse;whiteSpace=wrap;html=1;aspect=fixed;fillColor=#e1d5e7;strokeColor=#9673a6;" vertex="1" parent="1">
          <mxGeometry x="588.13" y="77" width="110.75" height="110.75" as="geometry" />
        </mxCell>
        <mxCell id="ZhMHDOxgKuTmW_Kodd7u-11" value="&lt;h3&gt;Confirm order&lt;/h3&gt;" style="ellipse;whiteSpace=wrap;html=1;aspect=fixed;fillColor=#e1d5e7;strokeColor=#9673a6;" vertex="1" parent="1">
          <mxGeometry x="588.13" y="495" width="126.13" height="126.13" as="geometry" />
        </mxCell>
        <mxCell id="ZhMHDOxgKuTmW_Kodd7u-19" value="" style="endArrow=classic;html=1;rounded=0;" edge="1" parent="1">
          <mxGeometry width="50" height="50" relative="1" as="geometry">
            <mxPoint x="473" y="572" as="sourcePoint" />
            <mxPoint x="572" y="572" as="targetPoint" />
            <Array as="points">
              <mxPoint x="517" y="572" />
            </Array>
          </mxGeometry>
        </mxCell>
        <mxCell id="ZhMHDOxgKuTmW_Kodd7u-20" value="" style="endArrow=classic;html=1;rounded=0;" edge="1" parent="1">
          <mxGeometry width="50" height="50" relative="1" as="geometry">
            <mxPoint x="209" y="572" as="sourcePoint" />
            <mxPoint x="326" y="572" as="targetPoint" />
            <Array as="points">
              <mxPoint x="286" y="572" />
            </Array>
          </mxGeometry>
        </mxCell>
        <mxCell id="ZhMHDOxgKuTmW_Kodd7u-24" value="" style="endArrow=classic;html=1;rounded=0;" edge="1" parent="1">
          <mxGeometry width="50" height="50" relative="1" as="geometry">
            <mxPoint x="642.25" y="264" as="sourcePoint" />
            <mxPoint x="642.25" y="198" as="targetPoint" />
          </mxGeometry>
        </mxCell>
        <mxCell id="ZhMHDOxgKuTmW_Kodd7u-26" value="" style="endArrow=classic;html=1;rounded=0;" edge="1" parent="1">
          <mxGeometry width="50" height="50" relative="1" as="geometry">
            <mxPoint x="642.25" y="484" as="sourcePoint" />
            <mxPoint x="642.25" y="407" as="targetPoint" />
          </mxGeometry>
        </mxCell>
        <mxCell id="ZhMHDOxgKuTmW_Kodd7u-34" value="&lt;h1&gt;Food Delivery&lt;/h1&gt;" style="rounded=0;whiteSpace=wrap;html=1;fillColor=#76608a;fontColor=#ffffff;strokeColor=#432D57;" vertex="1" parent="1">
          <mxGeometry x="275" y="17" width="253" height="60" as="geometry" />
        </mxCell>
        <mxCell id="ZhMHDOxgKuTmW_Kodd7u-36" value="&lt;h3&gt;Download and Sign in&lt;/h3&gt;" style="ellipse;whiteSpace=wrap;html=1;aspect=fixed;fillColor=#e1d5e7;strokeColor=#9673a6;" vertex="1" parent="1">
          <mxGeometry x="88" y="88" width="120.25" height="120.25" as="geometry" />
        </mxCell>
        <mxCell id="ZhMHDOxgKuTmW_Kodd7u-38" value="" style="endArrow=classic;html=1;rounded=0;" edge="1" parent="1">
          <mxGeometry width="50" height="50" relative="1" as="geometry">
            <mxPoint x="147.63" y="220" as="sourcePoint" />
            <mxPoint x="147.63" y="264" as="targetPoint" />
          </mxGeometry>
        </mxCell>
      </root>
    </mxGraphModel>
  </diagram>
</mxfile>
